<svg xmlns="http://www.w3.org/2000/svg" xmlns:xlink="http://www.w3.org/1999/xlink" width="781" height="776" viewBox="0 0 781 776">
  <defs>
    <clipPath id="clip-custom_12">
      <rect width="781" height="776"/>
    </clipPath>
  </defs>
  <g id="custom_12" data-name="custom – 12" clip-path="url(#clip-custom_12)">
    <g id="Group_11" data-name="Group 11" transform="translate(23 -149)">
      <g id="hand-with-smartphone-and-wireless-internet" transform="translate(0 0)">
        <path id="Path_66" data-name="Path 66" d="M134.572,75.422,115.048,55.95c74.557-74.583,195.908-74.608,270.465-.026l-19.524,19.55C302.176,11.66,198.359,11.66,134.572,75.422ZM351.76,89.7c-55.989-55.937-147.022-55.937-202.958.026l19.55,19.5c45.142-45.194,118.717-45.194,163.911-.026ZM203.24,144.091a66.618,66.618,0,0,1,94.158,0l19.524-19.55a94.292,94.292,0,0,0-133.257.026ZM436.672,400.714l-6.2,6.2a35.32,35.32,0,0,0,.052,50.023l2.712,2.712a35.312,35.312,0,0,0,50,.026l46.743-46.692,6.12-6.172a35.4,35.4,0,0,0,0-50.049l-2.763-2.737a35.366,35.366,0,0,0-50.023,0Zm102.887,21.925-46.717,46.717a35.476,35.476,0,0,0,0,50l2.686,2.737a35.413,35.413,0,0,0,50.023,0l6.2-6.224,40.468-40.416,6.121-6.2a35.4,35.4,0,0,0,.052-50.049l-2.712-2.712a35.366,35.366,0,0,0-50.023-.026Zm154.2,227.053L485.094,858.384a44.852,44.852,0,0,1-63.245.026l-35.923-35.948-38.014,37.963s-56.583,56.2-133.257,40.313c-.594-.129-1.214-.207-1.782-.336-3.331-.723-6.74-1.7-10.123-2.712-2.763-.826-5.656-1.808-8.471-2.841-2.763-1.033-5.552-1.963-8.367-3.228a160.16,160.16,0,0,1-17.07-8.6c-1.679-1.007-3.461-2.247-5.191-3.331-4.829-2.97-9.684-6.353-14.565-10.072-1.885-1.446-3.8-2.892-5.759-4.468A237.8,237.8,0,0,1,123.7,847.641c-73.885-73.885-70.657-139.713-56.841-172.95.052-.1,11.311-41.578,24.973-91.007,3.848-14.049,7.954-28.666,11.957-43.308L16.939,453.5a44.859,44.859,0,0,1,0-63.271L225.6,181.589a44.828,44.828,0,0,1,63.245,0L409.918,302.6l11-11.027a35.444,35.444,0,0,1,50.049,0l2.712,2.763a35.335,35.335,0,0,1,0,50l-6.172,6.224L427.091,391l-6.25,6.2a35.327,35.327,0,0,1-49.971,0l-2.686-2.686a35.444,35.444,0,0,1,0-50.049l6.146-6.2v-.026l13.636-13.636-102.525-102.5L57.458,450.014l55.989,55.937c9.529-34.089,18.052-63.813,22.545-77.966,14.178-44.91,49.971-43.257,66.99-15.934,13.248,21.047,2.97,69-3.9,123.288-1.369,10.717-4.958,28.33-9.142,47.027L417.019,809.42,644.873,581.514,627.958,564.6l-19.885,19.885a35.382,35.382,0,0,1-50,0l-2.763-2.763a35.382,35.382,0,0,1,0-50l6.2-6.2,40.468-40.442,6.121-6.2a35.444,35.444,0,0,1,50.049-.026l2.686,2.712a35.351,35.351,0,0,1,0,50.049l-6.121,6.146.052.052-4.855,4.8,43.825,43.825A44.852,44.852,0,0,1,693.76,649.692ZM110.71,349.761a5.385,5.385,0,0,0,7.618-.026l66.783-66.783a5.4,5.4,0,0,0-7.618-7.644L110.71,342.091A5.424,5.424,0,0,0,110.71,349.761ZM573.6,706.61a22.37,22.37,0,1,0,0,31.661A22.336,22.336,0,0,0,573.6,706.61Z" transform="translate(-3.884 0)" fill="#fc3"/>
      </g>
    </g>
    <g id="Group_12" data-name="Group 12" transform="matrix(0.695, -0.719, 0.719, 0.695, 197.331, 394.322)">
      <text id="Sunrise_Exporter" data-name="Sunrise Exporter" transform="translate(0.891 160.879)" fill="#fc9601" font-size="25" font-family="Kefa-Bold, Kefa" font-weight="700"><tspan x="19.848" y="23">Sunrise Exporter</tspan></text>
      <g id="mainicon" transform="translate(0 0)">
        <g id="Path_38" data-name="Path 38" transform="translate(52.601 49.547)" fill="#fc3">
          <path d="M 59.91849517822266 99.03976440429688 C 29.29747200012207 99.03976440429688 12.8434009552002 98.12069702148438 7.890829086303711 93.09716796875 C 6.54573392868042 91.73281097412109 5.795590877532959 89.83905029296875 5.382543563842773 86.76488494873047 C 4.910757541656494 83.25369262695312 4.974995613098145 78.73778533935547 5.056329250335693 73.02045440673828 C 5.091209888458252 70.56914520263672 5.127257823944092 68.03438568115234 5.127257823944092 65.24038696289062 C 5.127257823944092 57.13521575927734 6.790352821350098 49.27288436889648 10.07035255432129 41.87171936035156 C 11.6494722366333 38.30850219726562 13.60504341125488 34.87031173706055 15.88268661499023 31.65269470214844 C 18.14278221130371 28.45988464355469 20.73954391479492 25.45633697509766 23.60085296630859 22.72552680969238 C 26.46623420715332 19.99078941345215 29.62016296386719 17.50738334655762 32.97499465942383 15.34426498413086 C 36.36506652832031 13.15843200683594 39.98985290527344 11.28074169158936 43.74868774414062 9.763407707214355 C 51.57861328125 6.602646350860596 59.90109252929688 5.000003337860107 68.48492431640625 5.000003337860107 C 77.06875610351562 5.000003337860107 85.3912353515625 6.602646350860596 93.22116088867188 9.763407707214355 C 96.97999572753906 11.28074169158936 100.6047821044922 13.15843200683594 103.9948501586914 15.34426498413086 C 107.3496856689453 17.50738334655762 110.5036163330078 19.99078941345215 113.3689956665039 22.72552680969238 C 116.2303085327148 25.45633697509766 118.8270645141602 28.45988464355469 121.0871658325195 31.65269470214844 C 123.3648300170898 34.87033843994141 125.3203735351562 38.30850219726562 126.8994979858398 41.87174224853516 C 130.1794891357422 49.27288436889648 131.8426208496094 57.13521575927734 131.8426208496094 65.24038696289062 C 131.8426208496094 68.03621673583984 131.8803100585938 70.68122100830078 131.9135437011719 73.01486206054688 C 131.994140625 78.67230987548828 132.0578002929688 83.14090728759766 131.5953216552734 86.60262298583984 C 131.1924285888672 89.61847686767578 130.4616088867188 91.47457122802734 129.1517028808594 92.80895233154297 C 126.8098983764648 95.19452667236328 121.6802368164062 96.73171997070312 113.0083770751953 97.64653015136719 C 103.231689453125 98.67790985107422 89.2720947265625 98.93105316162109 68.46361541748047 99.01979064941406 C 65.31068420410156 99.03324127197266 62.51556777954102 99.03976440429688 59.91849517822266 99.03976440429688 Z" stroke="none"/>
          <path d="M 68.48492431640625 10 C 52.80933380126953 10 38.09516143798828 15.80391693115234 27.05295562744141 26.34255981445312 C 16.13824462890625 36.75952911376953 10.12727355957031 50.57370758056641 10.12727355957031 65.24038696289062 C 10.12727355957031 68.04979705810547 10.09039306640625 70.66241455078125 10.05583953857422 73.09176635742188 C 9.947074890136719 80.73626708984375 9.844367980957031 87.95682525634766 11.45139312744141 89.58688354492188 C 15.84136199951172 94.03976440429688 43.43295288085938 94.03976440429688 59.91836547851562 94.03976440429688 L 68.44227600097656 94.01982116699219 C 91.9371337890625 93.91964721679688 121.17724609375 93.79497528076172 125.5836029052734 89.30629730224609 C 127.1227798461914 87.73835754394531 127.0166625976562 80.28958892822266 126.9140396118164 73.08609008789062 C 126.8795166015625 70.66206359863281 126.8425979614258 68.05165100097656 126.8425979614258 65.24038696289062 C 126.8425979614258 34.78073883056641 100.6634521484375 10 68.48492431640625 10 M 68.48492431640625 0 C 106.2378082275391 0 136.8426055908203 29.20912170410156 136.8426055908203 65.24038696289062 C 136.8426055908203 101.2716522216797 143.0648651123047 103.7017364501953 68.48492431640625 104.0197372436523 C 65.50336456298828 104.0324478149414 62.64720916748047 104.0397644042969 59.91837310791016 104.0397644042969 C -5.6112060546875 104.0397644042969 0.1272735595703125 99.83116149902344 0.1272735595703125 65.24038696289062 C 0.1272430419921875 29.20912170410156 30.73204040527344 0 68.48492431640625 0 Z" stroke="none" fill="#fc3"/>
        </g>
        <g id="sunmark" transform="translate(0 0)">
          <path id="Path_51" data-name="Path 51" d="M8.907,0c4.919,0,8.907,26.37,8.907,31.289A8.907,8.907,0,0,1,0,31.289C0,26.37,3.988,0,8.907,0Z" transform="translate(112.275 0)" fill="#fc9601"/>
          <path id="Path_52" data-name="Path 52" d="M8.907,0c4.919,0,8.907,26.37,8.907,31.289A8.907,8.907,0,0,1,0,31.289C0,26.37,3.988,0,8.907,0Z" transform="matrix(0.848, 0.53, -0.53, 0.848, 171.037, 6.796)" fill="#fc9601"/>
          <path id="Path_53" data-name="Path 53" d="M8.907,0c4.919,0,8.907,26.37,8.907,31.289A8.907,8.907,0,0,1,0,31.289C0,26.37,3.988,0,8.907,0Z" transform="matrix(0.602, 0.799, -0.799, 0.602, 212.031, 37.078)" fill="#fc9601"/>
          <path id="Path_54" data-name="Path 54" d="M8.907,0c4.919,0,8.907,26.37,8.907,31.289A8.907,8.907,0,1,1,0,31.289C0,26.37,3.988,0,8.907,0Z" transform="translate(232.224 81.166) rotate(68)" fill="#fc9601"/>
          <path id="Path_55" data-name="Path 55" d="M8.907,0c4.919,0,8.907,26.37,8.907,31.289A8.907,8.907,0,1,1,0,31.289C0,26.37,3.988,0,8.907,0Z" transform="translate(237.182 122.581) rotate(79)" fill="#fc9601"/>
          <path id="Path_56" data-name="Path 56" d="M8.907,0c4.919,0,8.907,26.37,8.907,31.289A8.907,8.907,0,1,1,0,31.289C0,26.37,3.988,0,8.907,0Z" transform="translate(59.336 16.235) rotate(-32)" fill="#fc9601"/>
          <path id="Path_57" data-name="Path 57" d="M8.907,0c4.919,0,8.907,26.37,8.907,31.289A8.907,8.907,0,1,1,0,31.289C0,26.37,3.988,0,8.907,0Z" transform="matrix(0.602, -0.799, 0.799, 0.602, 21.393, 51.304)" fill="#fc9601"/>
          <path id="Path_58" data-name="Path 58" d="M8.907,0c4.919,0,8.907,26.37,8.907,31.289A8.907,8.907,0,1,1,0,31.289C0,26.37,3.988,0,8.907,0Z" transform="translate(2.129 97.682) rotate(-68)" fill="#fc9601"/>
          <path id="Path_59" data-name="Path 59" d="M8.907,0c4.919,0,8.907,26.37,8.907,31.289A8.907,8.907,0,1,1,0,31.289C0,26.37,3.988,0,8.907,0Z" transform="translate(0 140.067) rotate(-79)" fill="#fc9601"/>
        </g>
      </g>
    </g>
  </g>
</svg>
