<svg xmlns="http://www.w3.org/2000/svg" xmlns:xlink="http://www.w3.org/1999/xlink" width="781" height="776" viewBox="0 0 781 776">
  <defs>
    <clipPath id="clip-custom_20">
      <rect width="781" height="776"/>
    </clipPath>
  </defs>
  <g id="custom_20" data-name="custom – 20" clip-path="url(#clip-custom_20)">
    <g id="hand-shake" transform="translate(31 66.996)">
      <g id="left_hand" transform="translate(-4)">
        <path id="Path_100" data-name="Path 100" d="M537.244,394.783c-14.1-29.4-64.55-70.209-113.291-109.639-27.186-21.976-52.874-42.754-69.25-59.13a14.965,14.965,0,0,0-15.658-3.5c-10.089,3.653-16.318,6.467-21.227,8.652-7.484,3.353-10,4.491-20.09,5.508a14.965,14.965,0,0,0-10.958,6.557c-21.168,31.646-43.084,28.951-57.724,24.042-4.671-1.556-5.508-3.563-5.958-5.479-3.144-13.143,12.635-43.742,33.083-64.191,48.652-48.682,73.741-60.868,126.734-37.185,60.118,26.885,120.357,47.934,120.957,48.143a14.979,14.979,0,1,0,9.849-28.293c-.6-.209-59.64-20.838-118.561-47.215C326.5,102.361,288.835,122.571,235.033,176.4c-20.479,20.479-48.293,61.915-41.108,92.3,3.083,12.934,12.186,22.515,25.718,26.975,33.922,11.2,64.879.479,87.933-30.119,9.521-1.467,14.7-3.622,22.484-7.125,2.814-1.257,6.108-2.724,10.479-4.491,17.126,16.078,40.239,34.789,64.58,54.46,44.011,35.6,93.921,75.957,105.148,99.31,5.539,11.526-.42,19.042-4.461,22.484-5.928,5.09-14.041,6.707-18.442,3.622a14.966,14.966,0,0,0-23.382,13.922c1.017,9.521-7.695,14.97-11.467,16.856-9.581,4.85-19.581,4.012-23.323.539a14.966,14.966,0,0,0-25.12,9.55c-.9,9.82-8.174,19.251-17.665,22.933-4.581,1.736-11.227,2.784-17.185-2.665a15.145,15.145,0,0,0-13.682-3.473,14.948,14.948,0,0,0-10.509,9.431c-.568,1.5-1.857,5.09-15.868,5.09-9.97,0-27.9-6.736-36.676-12.545-10.509-6.916-76.406-56.076-133.321-103.741-7.994-6.736-21.826-21.168-34.041-33.922-10.839-11.317-20.748-21.586-25.838-25.9a14.977,14.977,0,1,0-19.341,22.874c4.641,3.923,13.623,13.413,23.533,23.742,13.354,13.951,27.155,28.383,36.437,36.168,55.748,46.676,122.753,97.065,136.105,105.836,11.018,7.246,34.76,17.425,53.143,17.425,14.76,0,26.108-3.384,33.981-10a46.6,46.6,0,0,0,34.041-.359,58.97,58.97,0,0,0,31.167-28.771c11.8,2.515,25.3.748,37.574-5.419,12.006-6.047,20.688-15.3,25-26.108,11.916.629,24.191-3.593,34.34-12.305C542.454,438.285,547.183,415.412,537.244,394.783Z" transform="translate(30.112 9.139)" fill="#fc3"/>
        <path id="Path_106" data-name="Path 106" d="M174.967,130.036C149.308,105.724,46.706,97.85,15.868,96.024A14.957,14.957,0,0,0,0,110.963V380.42a14.976,14.976,0,0,0,14.97,14.97h89.819a14.955,14.955,0,0,0,14.221-10.329c2.185-6.707,53.772-165.027,60.567-242.87A14.893,14.893,0,0,0,174.967,130.036ZM93.861,365.451H29.939V127.011c48.113,3.8,100.029,12.065,118.891,21.227C140.9,213.806,105,330.3,93.861,365.451Z" transform="translate(0 0)" fill="#fc9601"/>
      </g>
      <g id="right_hand">
        <path id="Path_101" data-name="Path 101" d="M256.365,138.663H121.636a14.97,14.97,0,1,0,0,29.941H256.365a14.97,14.97,0,1,0,0-29.941Z" transform="translate(43.031 17.21)" fill="#fc3"/>
        <path id="Path_102" data-name="Path 102" d="M455.977,294.621a14.932,14.932,0,0,0-20.778-4.071l-43.771,29.4a14.972,14.972,0,0,0,16.708,24.85l43.771-29.4A14.983,14.983,0,0,0,455.977,294.621Z" transform="translate(155.24 77.446)" fill="#fc3"/>
        <path id="Path_103" data-name="Path 103" d="M402.093,370.358c-10.718-8.443-58.652-57.514-88.292-88.411a14.971,14.971,0,0,0-21.617,20.719c7.695,8.023,75.567,78.771,91.346,91.226a14.908,14.908,0,0,0,9.251,3.2,15.126,15.126,0,0,0,11.8-5.719A14.959,14.959,0,0,0,402.093,370.358Z" transform="translate(116.191 73.146)" fill="#fc3"/>
        <path id="Path_104" data-name="Path 104" d="M355.187,387.47c-17.934-14.342-62.992-62.215-73.173-73.292a14.981,14.981,0,1,0-22.066,20.27c.539.568,54.311,58.622,76.526,76.406a14.975,14.975,0,0,0,18.713-23.384Z" transform="translate(103.277 86.063)" fill="#fc3"/>
        <path id="Path_105" data-name="Path 105" d="M312.819,409.024c-21.347-17.993-65.029-64.49-73.562-73.622a14.976,14.976,0,1,0-21.886,20.449c12.276,13.143,54.071,57.455,76.137,76.077a14.979,14.979,0,0,0,19.311-22.9Z" transform="translate(86.067 94.659)" fill="#fc3"/>
        <path id="Path_107" data-name="Path 107" d="M557.121,117.33c-117.543,0-182.752,30.089-185.476,31.347a14.894,14.894,0,0,0-7.994,9.312,15.1,15.1,0,0,0,1.646,12.155c18.5,29.79,76.436,195.237,87.573,235.595A14.967,14.967,0,0,0,467.3,416.726H557.12a14.976,14.976,0,0,0,14.97-14.97V132.3A14.956,14.956,0,0,0,557.121,117.33ZM542.152,386.787H478.5c-14.191-46.227-56.107-166.764-79.49-216.583,22.843-7.754,71.915-21.078,143.142-22.754Z" transform="translate(146.46 8.604)" fill="#fc9601"/>
      </g>
    </g>
  </g>
</svg>
