<svg xmlns="http://www.w3.org/2000/svg" xmlns:xlink="http://www.w3.org/1999/xlink" width="600" height="519" viewBox="0 0 600 519">
  <defs>
    <clipPath id="clip-custom_8">
      <rect width="600" height="519"/>
    </clipPath>
  </defs>
  <g id="custom_8" data-name="custom – 8" clip-path="url(#clip-custom_8)">
    <text id="Sunrise_Exporter" data-name="Sunrise Exporter" transform="translate(30 389)" fill="#fc9601" font-size="60" font-family="Kefa-Bold, Kefa" font-weight="700"><tspan x="29.201" y="56">Sunrise Exporter</tspan></text>
    <g id="mainicon" transform="translate(0.117)">
      <g id="Path_38" data-name="Path 38" transform="translate(146.286 139)" fill="#fc3">
        <path d="M 134.2636871337891 228.6256408691406 C 90.93477630615234 228.6256408691406 66.06413269042969 227.7439117431641 48.41977310180664 225.5822296142578 C 38.83704376220703 224.4081878662109 31.33740997314453 222.8289184570312 25.49227333068848 220.7541351318359 C 20.03822708129883 218.8181915283203 15.95149993896484 216.4210510253906 12.99854564666748 213.4258270263672 C 9.00840950012207 209.3785095214844 6.735454559326172 203.9004211425781 5.628727436065674 195.6635589599609 C 4.507909297943115 187.3220977783203 4.655045509338379 176.9780578613281 4.841363430023193 163.8819580078125 C 4.919363498687744 158.3991851806641 5 152.7297821044922 5 146.5 C 5 136.9118194580078 6.011863708496094 127.3309173583984 8.007454872131348 118.0233688354492 C 9.95231819152832 108.9524612426758 12.85472774505615 100.0291900634766 16.63400077819824 91.50141143798828 C 20.34700012207031 83.12322998046875 24.94368171691895 75.04100799560547 30.29640960693359 67.47927856445312 C 35.60236358642578 59.983642578125 41.69704437255859 52.93391418457031 48.41122817993164 46.52591705322266 C 55.12945556640625 40.11400604248047 62.52290725708008 34.29218673706055 70.38618469238281 29.22209739685059 C 78.32795715332031 24.10146141052246 86.81863403320312 19.70309638977051 95.62249755859375 16.1491870880127 C 104.5918197631836 12.5285062789917 113.9788208007812 9.747596740722656 123.5227737426758 7.883642196655273 C 133.3203582763672 5.970187664031982 143.4061889648438 5.000006198883057 153.5 5.000006198883057 C 163.5938110351562 5.000006198883057 173.6796417236328 5.970187664031982 183.4772338867188 7.883642196655273 C 193.0211791992188 9.747596740722656 202.4081878662109 12.5285062789917 211.3775024414062 16.1491870880127 C 220.1813659667969 19.70309638977051 228.6720428466797 24.10146141052246 236.6138153076172 29.22209739685059 C 244.4770965576172 34.29218673706055 251.8705444335938 40.11400604248047 258.5887756347656 46.52591705322266 C 265.3029479980469 52.93391418457031 271.3976440429688 59.983642578125 276.7035827636719 67.47927856445312 C 282.0563049316406 75.04100799560547 286.6530151367188 83.12322998046875 290.3659973144531 91.50141143798828 C 294.145263671875 100.0291900634766 297.0476684570312 108.9524612426758 298.9925537109375 118.0233688354492 C 300.9881286621094 127.3309173583984 302 136.9118194580078 302 146.5 C 302 152.7338256835938 302.0806274414062 158.3947296142578 302.1586303710938 163.8692321777344 C 302.34326171875 176.8295440673828 302.4891357421875 187.0663757324219 301.3898620605469 195.2945098876953 C 300.30712890625 203.3990478515625 298.0816955566406 208.7884216308594 294.1740112304688 212.7691040039062 C 291.0200805664062 215.9819641113281 286.5048522949219 218.5216369628906 280.370361328125 220.5333251953125 C 273.8316345214844 222.6775512695312 265.2491760253906 224.2899627685547 254.1326293945312 225.4626922607422 C 231.9172668457031 227.8062744140625 200.4040985107422 228.3806457519531 153.4786834716797 228.5807342529297 C 146.3897247314453 228.6109619140625 140.1044616699219 228.6256408691406 134.2636871337891 228.6256408691406 Z" stroke="none"/>
        <path d="M 153.5 10 C 74.37384033203125 10 10 71.23362731933594 10 146.5 C 10 152.7452545166016 9.917694091796875 158.5531005859375 9.840850830078125 163.9535827636719 C 9.49847412109375 188.0186767578125 9.291839599609375 202.5442504882812 16.55899047851562 209.9155731201172 C 27.9849853515625 221.5052642822266 65.16194152832031 223.6256256103516 134.2632598876953 223.6256256103516 L 153.4573669433594 223.5807800292969 C 237.4844665527344 223.2224731445312 278.4066772460938 221.6935272216797 290.6058959960938 209.2664184570312 C 297.7019348144531 202.0377807617188 297.4976196289062 187.6978912353516 297.1591491699219 163.9404602050781 C 297.0823669433594 158.5520477294922 297 152.749267578125 297 146.5 C 297 71.23362731933594 232.6261596679688 10 153.5 10 M 153.5 0 C 238.2756805419922 0 307 65.59031677246094 307 146.5 C 307 227.4096832275391 320.972412109375 232.8665161132812 153.5 233.5806732177734 C 146.8047790527344 233.6092224121094 140.3909759521484 233.6256561279297 134.2632598876953 233.6256561279297 C -12.88616943359375 233.6256561279297 0 224.1750640869141 0 146.5 C 0 65.59031677246094 68.72431945800781 0 153.5 0 Z" stroke="none" fill="#fc3"/>
      </g>
      <g id="sunmark">
        <path id="Path_51" data-name="Path 51" d="M20-50.261C31.046-50.261,40,8.954,40,20A20,20,0,0,1,0,20C0,8.954,8.954-50.261,20-50.261Z" transform="translate(280 78)" fill="#fc9601"/>
        <path id="Path_52" data-name="Path 52" d="M20-50.261C31.046-50.261,40,8.954,40,20A20,20,0,0,1,0,20C0,8.954,8.954-50.261,20-50.261Z" transform="matrix(0.848, 0.53, -0.53, 0.848, 385.32, 85.623)" fill="#fc9601"/>
        <path id="Path_53" data-name="Path 53" d="M20-50.261C31.046-50.261,40,8.954,40,20A20,20,0,0,1,0,20C0,8.954,8.954-50.261,20-50.261Z" transform="matrix(0.602, 0.799, -0.799, 0.602, 463.866, 141.248)" fill="#fc9601"/>
        <path id="Path_54" data-name="Path 54" d="M20-50.261C31.046-50.261,40,8.954,40,20A20,20,0,0,1,0,20C0,8.954,8.954-50.261,20-50.261Z" transform="translate(502.751 228.828) rotate(68)" fill="#fc9601"/>
        <path id="Path_55" data-name="Path 55" d="M20-50.261C31.046-50.261,40,8.954,40,20A20,20,0,0,1,0,20C0,8.954,8.954-50.261,20-50.261Z" transform="translate(511.148 312.59) rotate(79)" fill="#fc9601"/>
        <path id="Path_56" data-name="Path 56" d="M20-50.261C31.046-50.261,40,8.954,40,20A20,20,0,0,1,0,20C0,8.954,8.954-50.261,20-50.261Z" transform="translate(187.758 106.82) rotate(-32)" fill="#fc9601"/>
        <path id="Path_57" data-name="Path 57" d="M20-50.261C31.046-50.261,40,8.954,40,20A20,20,0,0,1,0,20C0,8.954,8.954-50.261,20-50.261Z" transform="matrix(0.602, -0.799, 0.799, 0.602, 116.061, 173.193)" fill="#fc9601"/>
        <path id="Path_58" data-name="Path 58" d="M20-50.261C31.046-50.261,40,8.954,40,20A20,20,0,0,1,0,20C0,8.954,8.954-50.261,20-50.261Z" transform="translate(79.265 265.915) rotate(-68)" fill="#fc9601"/>
        <path id="Path_59" data-name="Path 59" d="M20-50.261C31.046-50.261,40,8.954,40,20A20,20,0,0,1,0,20C0,8.954,8.954-50.261,20-50.261Z" transform="translate(77.22 351.855) rotate(-79)" fill="#fc9601"/>
      </g>
    </g>
  </g>
</svg>
