<svg xmlns="http://www.w3.org/2000/svg" xmlns:xlink="http://www.w3.org/1999/xlink" width="781" height="776" viewBox="0 0 781 776">
  <defs>
    <clipPath id="clip-custom_17">
      <rect width="781" height="776"/>
    </clipPath>
  </defs>
  <g id="custom_17" data-name="custom – 17" clip-path="url(#clip-custom_17)">
    <g id="visionary" transform="translate(25 21.984)">
      <path id="Path_87" data-name="Path 87" d="M604.521,10.964,615.462,51.8,163.44,172.235,174.4,213.126l-81.723,21.9,10.95,40.862L62.76,286.837l-21.9-81.725L0,216.062,54.745,420.373l40.862-10.95L73.71,327.7l40.862-10.95,10.95,40.862,81.725-21.9,10.927,40.779,90.2-23.776a63.938,63.938,0,0,0,22.343,20.328L178.655,679.694H128.321V722H204.9L339.839,449.865V679.694h-42.3V722H424.446v-42.3h-42.3V449.865L517.084,722H593.66v-42.3H543.326L391.269,373.045a63.54,63.54,0,0,0,33-51.292l245.938-65.637L681.164,297l40.862-10.95L645.384.016ZM155.433,305.8l-10.95-40.862,40.862-10.95,10.95,40.862Zm59.834-103.593,329.39-87.764,32.859,122.628-164.53,43.91a63.413,63.413,0,0,0-115.193,30.774L248.13,324.847ZM360.991,338.445a21.152,21.152,0,1,1,21.152-21.152A21.176,21.176,0,0,1,360.991,338.445Zm257.4-112.281L585.534,103.553l40.878-10.892,32.849,122.594Z" fill="#fc3"/>
    </g>
  </g>
</svg>
